HIERARCHY
ROOT Hips
{
    OFFSET 0.0 0.0 0.0
    CHANNELS 6 Xposition Yposition Zposition Zrotation Xrotation Yrotation
    JOINT LeftHipJoint
    {
        OFFSET 0.1 0.0 0.0
        CHANNELS 3 Zrotation Xrotation Yrotation
        JOINT LeftUpLeg
        {
            OFFSET 120.32794273535362 0.0 0.0
            CHANNELS 3 Zrotation Xrotation Yrotation
            JOINT LeftLeg
            {
                OFFSET 0.0 0.0 -405.499674992113
                CHANNELS 3 Zrotation Xrotation Yrotation
                JOINT LeftFoot
                {
                    OFFSET 0.0 0.0 -403.12628003637553
                    CHANNELS 3 Zrotation Xrotation Yrotation
                    End Site
                    {
                        OFFSET 0.0 -0.1 0.0
                    }
                }
            }
        }
    }
    JOINT LowerBack
    {
        OFFSET 0.0 0.0 0.1
        CHANNELS 3 Zrotation Xrotation Yrotation
        JOINT Spine
        {
            OFFSET 0.0 0.0 217.02317871897847
            CHANNELS 3 Zrotation Xrotation Yrotation
            JOINT Spine1
            {
                OFFSET 0.0 0.0 252.984850472228
                CHANNELS 3 Zrotation Xrotation Yrotation
                JOINT LeftShoulder
                {
                    OFFSET 0.1 0.0 0.0
                    CHANNELS 3 Zrotation Xrotation Yrotation
                    JOINT LeftArm
                    {
                        OFFSET 146.12876439043163 0.0 0.0
                        CHANNELS 3 Zrotation Xrotation Yrotation
                        JOINT LeftForeArm
                        {
                            OFFSET 265.2051338125309 0.0 0.0
                            CHANNELS 3 Zrotation Xrotation Yrotation
                            JOINT LeftHand
                            {
                                OFFSET 234.68617229341618 0.0 0.0
                                CHANNELS 3 Zrotation Xrotation Yrotation
                                End Site
                                {
                                    OFFSET 0.1 0.0 0.0
                                }
                            }
                        }
                    }
                }
                JOINT Neck
                {
                    OFFSET 0.0 0.0 0.1
                    CHANNELS 3 Zrotation Xrotation Yrotation
                    JOINT Neck1
                    {
                        OFFSET 0.0 0.0 107.26398730901076
                        CHANNELS 3 Zrotation Xrotation Yrotation
                        End Site
                        {
                            OFFSET 0.0 0.0 107.92729113294396
                        }
                    }
                }
                JOINT RightShoulder
                {
                    OFFSET -0.1 0.0 0.0
                    CHANNELS 3 Zrotation Xrotation Yrotation
                    JOINT RightArm
                    {
                        OFFSET -146.12876439043163 0.0 0.0
                        CHANNELS 3 Zrotation Xrotation Yrotation
                        JOINT RightForeArm
                        {
                            OFFSET -265.2051338125309 0.0 0.0
                            CHANNELS 3 Zrotation Xrotation Yrotation
                            JOINT RightHand
                            {
                                OFFSET -234.68617229341618 0.0 0.0
                                CHANNELS 3 Zrotation Xrotation Yrotation
                                End Site
                                {
                                    OFFSET -0.1 0.0 0.0
                                }
                            }
                        }
                    }
                }
            }
        }
    }
    JOINT RightHipJoint
    {
        OFFSET -0.1 0.0 0.0
        CHANNELS 3 Zrotation Xrotation Yrotation
        JOINT RightUpLeg
        {
            OFFSET -120.32794273535362 0.0 0.0
            CHANNELS 3 Zrotation Xrotation Yrotation
            JOINT RightLeg
            {
                OFFSET 0.0 0.0 -405.499674992113
                CHANNELS 3 Zrotation Xrotation Yrotation
                JOINT RightFoot
                {
                    OFFSET 0.0 0.0 -403.12628003637553
                    CHANNELS 3 Zrotation Xrotation Yrotation
                    End Site
                    {
                        OFFSET 0.0 -0.1 0.0
                    }
                }
            }
        }
    }
}
MOTION
Frames: 7
Frame Time: 0.03333333333333333
0.0 0.0 825.99449341317 28.69607498262471 10.871571288614682 2.6978800050656147 0.0 0.0 0.0 -1.005946119873243 -25.08228738719687 0.6084183046592564 1.1183280007423098 20.542558333709554 -0.691605774127055 0.0 0.0 1.987846675914698e-16 0.0 0.0 0.0 0.036077637804111405 0.9603614644908589 2.853065194982932 1.0681138242180601 -2.3816066763981758e-15 4.197863280460681e-16 0.0 0.0 0.0 -54.23721387691013 53.76082051237453 86.35107418420105 -90.38219661082212 1.575035595501764e-14 -2.1964720200192896e-15 -3.1805546814635164e-15 2.2069531490250793e-32 -7.951386703658791e-16 0.0 0.0 0.0 -4.804880885971303 -4.073172355329611 0.7625817067994214 0.0 0.0 0.0 27.13587084053745 34.9271148841127 -75.35302578731056 84.33134703892152 -2.3574490690698686e-15 2.1350320766960623e-15 0.0 0.0 -1.5902773407317584e-15 0.0 0.0 0.0 -0.8498508148763739 -21.516751445688268 -0.08201987524473933 0.9951132674370705 24.011468717351516 -2.1669773831081813 0.0 0.0 -3.975693351829396e-16
0.0 0.0 825.99449341317 28.633260272221246 10.89138519184626 2.8216661792164586 0.0 0.0 0.0 -1.0338815795379193 -25.037352144022265 0.4961561863846985 1.0966240493278034 20.44181988724957 -0.6601968513196721 2.758691436281349e-33 7.951386703658792e-16 -3.975693351829396e-16 0.0 0.0 0.0 0.03213318320480432 0.8305037708569347 2.758368570349547 1.1514237193190169 -2.4012745371131186e-15 -1.5662286435441078e-15 0.0 0.0 -3.975693351829396e-16 -54.35329237158135 53.79644408079498 86.2334168807261 -90.44007230671048 2.2921597307597245e-15 -1.1236239087515755e-14 -3.1805546814635168e-15 -6.620859447075238e-32 2.3854160110976376e-15 0.0 0.0 -3.975693351829396e-16 -4.906178980108136 -4.156555515856641 0.9683797676173691 0.0 0.0 -3.975693351829396e-16 26.343237110985836 34.2377202609165 -74.60271151943802 84.52125591678535 6.631779647588186e-15 2.5688789607010645e-15 0.0 0.0 0.0 0.0 0.0 0.0 -0.8814046307086771 -21.6507688073714 -0.320953181762475 0.9272012650496472 24.169220462577645 -1.7475805898747307 0.0 0.0 3.975693351829396e-16
0.0 0.0 825.99449341317 28.489522300910867 10.812603271826342 2.9241961081205026 0.0 0.0 0.0 -1.0643130220540669 -24.818853869062405 0.47967789336844635 1.1207789049142292 20.36917740253454 -0.727876340756276 0.0 0.0 1.987846675914698e-16 0.0 0.0 0.0 0.031158270204514425 0.7744836293829578 2.6970019248129624 1.263346590856476 2.7740501676004292e-15 -8.257715243090383e-16 -3.1805546814635176e-15 0.0 0.0 -54.4411633656984 53.79911760014034 86.14862293855455 -90.36157483510277 4.257787348636683e-17 -1.3493883525387353e-14 0.0 0.0 1.1927080055488188e-15 -3.1805546814635176e-15 0.0 0.0 -4.976756786836036 -4.204181762118388 1.1482021675064227 -3.1805546814635176e-15 0.0 0.0 25.740590747930753 33.500358788466215 -73.91547923578513 84.81187264511962 -4.289797897557164e-15 -4.696950747584238e-15 -6.3611093629270335e-15 0.0 0.0 0.0 0.0 0.0 -0.9233638360321079 -21.79683496710659 -0.45926561408803046 0.9176362727520753 24.37737593606001 -1.440465222955957 0.0 0.0 0.0
0.0 0.0 825.99449341317 28.323188009799498 10.773125628678457 2.9699923302804225 0.0 0.0 3.975693351829396e-16 -1.0814474185066452 -24.633243043420958 0.5320918759908667 1.1506123713106169 20.18194817553314 -0.7765545688410174 0.0 0.0 0.0 0.0 0.0 3.975693351829396e-16 0.03231056881224837 0.7837320284576461 2.648959992453349 1.3340183700744657 -2.3528569615732063e-15 2.8105659753846527e-15 0.0 0.0 3.975693351829396e-16 -54.48910543041912 53.71852373713812 86.00719017785921 -90.38755456901781 -1.1252500796418883e-14 2.210947961786038e-15 -8.827812596100317e-32 -6.361109362927035e-15 -1.5902773407317588e-15 0.0 0.0 3.975693351829396e-16 -4.9702293885325615 -4.291542256872483 1.3414138841489762 0.0 0.0 3.975693351829396e-16 25.304755048604218 32.696783251441 -73.39967153526516 85.24275954456422 -1.1328609630952417e-14 1.7803563948337967e-15 0.0 0.0 6.3611093629270335e-15 0.0 0.0 3.975693351829396e-16 -0.9480364005150783 -21.83613425971471 -0.48468082488860376 0.9359289390021748 24.416492728843654 -1.370375508954191 0.0 0.0 -3.975693351829396e-16
0.0 0.0 825.99449341317 28.19235109958749 10.707549202336322 2.9944835940938637 0.0 0.0 3.975693351829396e-16 -1.0861906175473948 -24.535329047451235 0.7150580554916798 1.2222480646205387 20.125932673421588 -0.9075295840606226 0.0 0.0 1.987846675914698e-16 0.0 0.0 3.975693351829396e-16 0.0307570902722966 0.7394039873457224 2.6564906193824793 1.5180604578777321 -5.157414488867431e-15 8.635356889442919e-16 -1.1034765745125397e-32 -1.5902773407317584e-15 -7.951386703658792e-16 -54.437060029950324 53.72709392896574 85.71765016367395 -90.57387874538136 2.2467109831031716e-14 4.6105570263138e-15 0.0 0.0 3.1805546814635168e-15 -1.1034765745125397e-32 -1.5902773407317584e-15 -7.951386703658792e-16 -5.01554718986391 -4.369332696486795 1.4369069082181365 -1.1034765745125397e-32 -1.5902773407317584e-15 -7.951386703658792e-16 24.492509862394023 31.816911409388073 -72.57168218165397 86.07396498358132 1.7084066441170904e-15 1.5810741563343063e-14 0.0 0.0 1.590277340731758e-15 0.0 0.0 3.975693351829396e-16 -0.960573697489696 -21.917667514671425 -0.41030396369190275 0.9958476097149904 24.746445018377376 -1.4165121841794952 -6.896728590703373e-34 -1.987846675914698e-16 -3.975693351829396e-16
0.0 0.0 825.99449341317 27.96200280429357 10.912749300031756 3.0241972089972617 0.0 -1.987846675914698e-16 0.0 -1.1198637279887944 -24.832444178014907 0.9453258409241139 1.3195027374431998 20.041338806429252 -1.0417423851317158 -6.896728590703373e-34 -1.987846675914698e-16 -3.975693351829396e-16 0.0 -1.987846675914698e-16 0.0 0.029990909899542766 0.7090114413400054 2.731657788711227 1.6123839924064496 -1.2037777307879638e-15 -7.782782705886377e-16 0.0 0.0 7.951386703658792e-16 -54.134044877887725 53.57488204188055 85.29897299817569 -90.63013570922574 -2.022825294080191e-14 -2.36026149311856e-15 0.0 0.0 9.144094709207609e-15 0.0 0.0 7.951386703658792e-16 -5.139690438568264 -4.464425645877102 1.3197286989110655 0.0 0.0 7.951386703658792e-16 23.50887101951959 30.776378558843035 -71.86332754323895 86.77376537130105 1.1050571843177559e-14 7.060852592217365e-15 0.0 0.0 4.770832022195275e-15 0.0 -1.987846675914698e-16 0.0 -1.0107497940024268 -22.60659615545243 -0.2707327912877494 1.118449036683035 25.388669214812918 -1.4039513101701309 0.0 0.0 3.975693351829396e-16
0.0 0.0 825.99449341317 27.770061360234298 11.038083314134168 3.0242767696351174 0.0 0.0 -7.951386703658792e-16 -1.1630527136106699 -24.858416808911 1.2514200057392288 1.4349193495493175 19.621565762783195 -1.2361539058745183 0.0 0.0 3.975693351829396e-16 0.0 0.0 -7.951386703658792e-16 0.031889035331467114 0.726854952756985 2.7669516035190047 1.638934161276907 2.0047013676231003e-15 1.1641560119225527e-15 0.0 0.0 -3.975693351829396e-16 -54.069450283453584 53.39544312417054 85.16578152462056 -90.58325476853908 1.570839756085159e-14 6.827016950457734e-15 -3.1805546814635168e-15 -1.7655625192200634e-31 6.3611093629270335e-15 0.0 0.0 -3.975693351829396e-16 -5.2366612265793915 -4.627185343875691 1.23389560904155 0.0 0.0 -3.975693351829396e-16 22.75221743472067 30.06033878571194 -71.29548724296328 87.59900961730902 -3.769501070253349e-16 1.7987985079873657e-14 0.0 0.0 1.5902773407317584e-15 0.0 0.0 -7.951386703658792e-16 -1.0730055970209698 -23.08662667211071 -0.003968613220599418 1.3234970554943797 25.853245042767895 -1.5336727011604603 0.0 0.0 0.0
